<svg xmlns="http://www.w3.org/2000/svg" viewBox="0 0 46 46" fill="none">
  <path d="M23 9.5c3.15 0 5.7 1.08 7.53 2.85l5.63-5.62C33.17 3.04 28.41 1 23 1 13.23 1 5.01 6.65 1.7 14.78l6.53 5.06C10.4 14.62 16.15 9.5 23 9.5z" fill="#EA4335" />
  <path d="M45.98 23.5c0-1.58-.14-3.1-.4-4.58H23v8.7h12.65c-.55 2.95-2.25 5.45-4.8 7.14l7.38 5.74c4.33-4 6.75-9.85 6.75-17z" fill="#4285F4" />
  <path d="M10.23 27.62a13.77 13.77 0 0 1 0-9.24l-6.53-5.06A23.16 23.16 0 0 0 1 23.5c0 3.7.88 7.2 2.4 10.3l6.83-6.18z" fill="#FBBC05" />
  <path d="M23 45c6.25 0 11.51-2.05 15.35-5.56l-7.38-5.74c-2.05 1.4-4.7 2.22-7.97 2.22-6.83 0-12.62-4.6-14.7-10.78l-6.83 6.18C5.01 39.35 13.23 45 23 45z" fill="#34A853" />
</svg>
